<svg width="30" height="31" viewBox="0 0 30 31" fill="none" xmlns="http://www.w3.org/2000/svg">
<path d="M26.25 9.76904H3.75C3.2375 9.76904 2.8125 9.34404 2.8125 8.83154C2.8125 8.31904 3.2375 7.89404 3.75 7.89404H26.25C26.7625 7.89404 27.1875 8.31904 27.1875 8.83154C27.1875 9.34404 26.7625 9.76904 26.25 9.76904Z" fill="#B9B9BF"/>
<path d="M22.5 16.019H7.5C6.9875 16.019 6.5625 15.594 6.5625 15.0815C6.5625 14.569 6.9875 14.144 7.5 14.144H22.5C23.0125 14.144 23.4375 14.569 23.4375 15.0815C23.4375 15.594 23.0125 16.019 22.5 16.019Z" fill="#B9B9BF"/>
<path d="M17.5 22.269H12.5C11.9875 22.269 11.5625 21.844 11.5625 21.3315C11.5625 20.819 11.9875 20.394 12.5 20.394H17.5C18.0125 20.394 18.4375 20.819 18.4375 21.3315C18.4375 21.844 18.0125 22.269 17.5 22.269Z" fill="#B9B9BF"/>
</svg>
