<svg width="20" height="20" viewBox="0 0 20 20" fill="none" xmlns="http://www.w3.org/2000/svg">
<g clip-path="url(#clip0_305_328)">
<path d="M16.3382 5.82847C16.2748 5.58014 16.0948 5.39264 15.889 5.33514C15.5248 5.23264 13.7498 4.99931 9.99984 4.99931C6.24984 4.99931 4.4765 5.23264 4.109 5.33514C3.90567 5.39181 3.72567 5.57931 3.6615 5.82847C3.57067 6.18181 3.33317 7.66264 3.33317 9.99931C3.33317 12.336 3.57067 13.816 3.6615 14.171C3.72484 14.4185 3.90484 14.606 4.10984 14.6626C4.4765 14.766 6.24984 14.9993 9.99984 14.9993C13.7498 14.9993 15.524 14.766 15.8907 14.6635C16.094 14.6068 16.274 14.4193 16.3382 14.1701C16.429 13.8168 16.6665 12.3326 16.6665 9.99931C16.6665 7.66598 16.429 6.18264 16.3382 5.82847ZM17.9523 5.41431C18.3332 6.89931 18.3332 9.99931 18.3332 9.99931C18.3332 9.99931 18.3332 13.0993 17.9523 14.5843C17.7407 15.4051 17.1215 16.051 16.3373 16.2693C14.9132 16.666 9.99984 16.666 9.99984 16.666C9.99984 16.666 5.089 16.666 3.66234 16.2693C2.87484 16.0476 2.2565 15.4026 2.04734 14.5843C1.6665 13.0993 1.6665 9.99931 1.6665 9.99931C1.6665 9.99931 1.6665 6.89931 2.04734 5.41431C2.259 4.59347 2.87817 3.94764 3.66234 3.72931C5.089 3.33264 9.99984 3.33264 9.99984 3.33264C9.99984 3.33264 14.9132 3.33264 16.3373 3.72931C17.1248 3.95097 17.7432 4.59598 17.9523 5.41431ZM8.33317 12.916V7.08264L13.3332 9.99931L8.33317 12.916Z" fill="#BABAC0"/>
</g>
<defs>
<clipPath id="clip0_305_328">
<rect width="20" height="20" fill="white"/>
</clipPath>
</defs>
</svg>
